<?xml version="1.0" encoding="utf-8"?>
<!-- Generator: Adobe Illustrator 18.0.0, SVG Export Plug-In . SVG Version: 6.00 Build 0)  -->
<!DOCTYPE svg PUBLIC "-//W3C//DTD SVG 1.1//EN" "http://www.w3.org/Graphics/SVG/1.1/DTD/svg11.dtd">
<svg version="1.1" id="Layer_1" xmlns="http://www.w3.org/2000/svg" xmlns:xlink="http://www.w3.org/1999/xlink" x="0px" y="0px"
	 viewBox="0 0 1400 980" enable-background="new 0 0 1400 980" xml:space="preserve">
<g>
	<rect fill="#FFEEB3" width="1400" height="980"/>
	<g>
		<g>
			<rect x="35.7" y="44.5" fill="#FFFFFF" width="51.7" height="347.9"/>
			<rect x="112.5" y="44.5" fill="#FFFFFF" width="51.7" height="347.9"/>
			<rect x="189.3" y="44.5" fill="#FFFFFF" width="51.7" height="347.9"/>
			<rect x="266.1" y="44.5" fill="#FFFFFF" width="51.7" height="347.9"/>
			<rect x="342.9" y="44.5" fill="#FFFFFF" width="51.7" height="347.9"/>
			<rect x="419.7" y="44.5" fill="#FFFFFF" width="51.7" height="347.9"/>
			<rect x="35.7" y="66" fill="#3BB2E6" width="51.7" height="326.3"/>
			<rect x="112.5" y="103" fill="#64C3A6" width="51.7" height="289.4"/>
			<rect x="189.3" y="165.4" fill="#9CC967" width="51.7" height="226.9"/>
			<rect x="266.1" y="208.4" fill="#FDD836" width="51.7" height="183.9"/>
			<rect x="342.9" y="259.3" fill="#FAA62C" width="51.7" height="133"/>
			<rect x="419.7" y="313.7" fill="#E94D40" width="51.7" height="78.7"/>
		</g>
		<g>
			<circle fill="#FFFFFF" cx="575.2" cy="126.5" r="82"/>
			<circle fill="#FFFFFF" cx="575.2" cy="313.7" r="82"/>
			<circle fill="#FFFFFF" cx="762.7" cy="126.5" r="82"/>
			<circle fill="#FFFFFF" cx="762.7" cy="313.7" r="82"/>
			<circle fill="#FFFFFF" cx="950.2" cy="126.5" r="82"/>
			<circle fill="#FFFFFF" cx="950.2" cy="313.7" r="82"/>
			<g>
				<path fill="#3BB2E6" d="M575.2,126.5V42.8c-45.3,0-82,36.7-82,82s36.7,82,82,82s82-36.7,82-82c0-22.2-8.9-42.4-23.2-57.1
					L575.2,126.5z"/>
				<path fill="#FAA62C" d="M493.3,312c0,45.3,36.7,82,82,82V230C530,230,493.3,266.7,493.3,312z"/>
				<path fill="#88C348" d="M762.7,42.8c-45.3,0-82,36.7-82,82s36.7,82,82,82s82-36.7,82-82h-82V42.8z"/>
				<path fill="#F38EB2" d="M762.7,230c-45.3,0-82,36.7-82,82c0,22.6,9.2,43.1,24,58l58-58V230z"/>
				<path fill="#FDD836" d="M950.2,206.8c22.2,0,42.4-8.9,57.1-23.2l-57.1-57.1V42.8c-45.3,0-82,36.7-82,82S904.9,206.8,950.2,206.8
					z"/>
				<path fill="#E94D40" d="M950.2,230c-22.6,0-43.1,9.2-58,24l58,58V230z"/>
			</g>
		</g>
		<g>
			<path fill="#5AC2EF" d="M1066,61c-3.6,0-6.5,2.5-6.5,5.5v43.9c0,3,2.9,5.5,6.5,5.5c3.6,0,6.5-2.5,6.5-5.5V66.5
				C1072.5,63.4,1069.6,61,1066,61z"/>
			<path fill="#5AC2EF" d="M1083.2,61c-3.6,0-6.5,2.5-6.5,5.5v43.9c0,3,2.9,5.5,6.5,5.5c3.6,0,6.5-2.5,6.5-5.5V66.5
				C1089.7,63.4,1086.8,61,1083.2,61z"/>
			<path fill="#5AC2EF" d="M1100.3,61c-3.6,0-6.5,2.5-6.5,5.5v43.9c0,3,2.9,5.5,6.5,5.5c3.6,0,6.5-2.5,6.5-5.5V66.5
				C1106.8,63.4,1103.9,61,1100.3,61z"/>
			<path fill="#5AC2EF" d="M1117.5,61c-3.6,0-6.5,2.5-6.5,5.5v43.9c0,3,2.9,5.5,6.5,5.5s6.5-2.5,6.5-5.5V66.5
				C1124,63.4,1121.1,61,1117.5,61z"/>
			<path fill="#5AC2EF" d="M1134.7,61c-3.6,0-6.5,2.5-6.5,5.5v43.9c0,3,2.9,5.5,6.5,5.5c3.6,0,6.5-2.5,6.5-5.5V66.5
				C1141.2,63.4,1138.2,61,1134.7,61z"/>
			<path fill="#5AC2EF" d="M1151.8,61c-3.6,0-6.5,2.5-6.5,5.5v43.9c0,3,2.9,5.5,6.5,5.5c3.6,0,6.5-2.5,6.5-5.5V66.5
				C1158.3,63.4,1155.4,61,1151.8,61z"/>
			<path fill="#5AC2EF" d="M1169,61c-3.6,0-6.5,2.5-6.5,5.5v43.9c0,3,2.9,5.5,6.5,5.5c3.6,0,6.5-2.5,6.5-5.5V66.5
				C1175.5,63.4,1172.6,61,1169,61z"/>
			<path fill="#5AC2EF" d="M1186.1,61c-3.6,0-6.5,2.5-6.5,5.5v43.9c0,3,2.9,5.5,6.5,5.5c3.6,0,6.5-2.5,6.5-5.5V66.5
				C1192.7,63.4,1189.7,61,1186.1,61z"/>
			<path fill="#5AC2EF" d="M1203.3,61c-3.6,0-6.5,2.5-6.5,5.5v43.9c0,3,2.9,5.5,6.5,5.5s6.5-2.5,6.5-5.5V66.5
				C1209.8,63.4,1206.9,61,1203.3,61z"/>
			<path fill="#5AC2EF" d="M1220.5,61c-3.6,0-6.5,2.5-6.5,5.5v43.9c0,3,2.9,5.5,6.5,5.5c3.6,0,6.5-2.5,6.5-5.5V66.5
				C1227,63.4,1224.1,61,1220.5,61z"/>
			<path fill="#5AC2EF" d="M1237.6,61c-3.6,0-6.5,2.5-6.5,5.5v43.9c0,3,2.9,5.5,6.5,5.5c3.6,0,6.5-2.5,6.5-5.5V66.5
				C1244.1,63.4,1241.2,61,1237.6,61z"/>
			<path fill="#5AC2EF" d="M1254.8,61c-3.6,0-6.5,2.5-6.5,5.5v43.9c0,3,2.9,5.5,6.5,5.5c3.6,0,6.5-2.5,6.5-5.5V66.5
				C1261.3,63.4,1258.4,61,1254.8,61z"/>
			<path fill="#5AC2EF" d="M1272,61c-3.6,0-6.5,2.5-6.5,5.5v43.9c0,3,2.9,5.5,6.5,5.5c3.6,0,6.5-2.5,6.5-5.5V66.5
				C1278.5,63.4,1275.6,61,1272,61z"/>
			<path fill="#5AC2EF" d="M1289.1,61c-3.6,0-6.5,2.5-6.5,5.5v43.9c0,3,2.9,5.5,6.5,5.5c3.6,0,6.5-2.5,6.5-5.5V66.5
				C1295.6,63.4,1292.7,61,1289.1,61z"/>
			<path fill="#5AC2EF" d="M1306.3,61c-3.6,0-6.5,2.5-6.5,5.5v43.9c0,3,2.9,5.5,6.5,5.5c3.6,0,6.5-2.5,6.5-5.5V66.5
				C1312.8,63.4,1309.9,61,1306.3,61z"/>
			<path fill="#5AC2EF" d="M1323.5,61c-3.6,0-6.5,2.5-6.5,5.5v43.9c0,3,2.9,5.5,6.5,5.5c3.6,0,6.5-2.5,6.5-5.5V66.5
				C1330,63.4,1327,61,1323.5,61z"/>
			<path fill="#5AC2EF" d="M1340.6,61c-3.6,0-6.5,2.5-6.5,5.5v43.9c0,3,2.9,5.5,6.5,5.5c3.6,0,6.5-2.5,6.5-5.5V66.5
				C1347.1,63.4,1344.2,61,1340.6,61z"/>
			<path fill="#FFFFFF" d="M1357.8,61c-3.6,0-6.5,2.5-6.5,5.5v43.9c0,3,2.9,5.5,6.5,5.5c3.6,0,6.5-2.5,6.5-5.5V66.5
				C1364.3,63.4,1361.4,61,1357.8,61z"/>
		</g>
		<g>
			<path fill="#88C348" d="M1066,126c-3.6,0-6.5,2.5-6.5,5.5v43.9c0,3,2.9,5.5,6.5,5.5c3.6,0,6.5-2.5,6.5-5.5v-43.9
				C1072.5,128.4,1069.6,126,1066,126z"/>
			<path fill="#88C348" d="M1083.2,126c-3.6,0-6.5,2.5-6.5,5.5v43.9c0,3,2.9,5.5,6.5,5.5c3.6,0,6.5-2.5,6.5-5.5v-43.9
				C1089.7,128.4,1086.8,126,1083.2,126z"/>
			<path fill="#88C348" d="M1100.3,126c-3.6,0-6.5,2.5-6.5,5.5v43.9c0,3,2.9,5.5,6.5,5.5c3.6,0,6.5-2.5,6.5-5.5v-43.9
				C1106.8,128.4,1103.9,126,1100.3,126z"/>
			<path fill="#88C348" d="M1117.5,126c-3.6,0-6.5,2.5-6.5,5.5v43.9c0,3,2.9,5.5,6.5,5.5s6.5-2.5,6.5-5.5v-43.9
				C1124,128.4,1121.1,126,1117.5,126z"/>
			<path fill="#88C348" d="M1134.7,126c-3.6,0-6.5,2.5-6.5,5.5v43.9c0,3,2.9,5.5,6.5,5.5c3.6,0,6.5-2.5,6.5-5.5v-43.9
				C1141.2,128.4,1138.2,126,1134.7,126z"/>
			<path fill="#88C348" d="M1151.8,126c-3.6,0-6.5,2.5-6.5,5.5v43.9c0,3,2.9,5.5,6.5,5.5c3.6,0,6.5-2.5,6.5-5.5v-43.9
				C1158.3,128.4,1155.4,126,1151.8,126z"/>
			<path fill="#88C348" d="M1169,126c-3.6,0-6.5,2.5-6.5,5.5v43.9c0,3,2.9,5.5,6.5,5.5c3.6,0,6.5-2.5,6.5-5.5v-43.9
				C1175.5,128.4,1172.6,126,1169,126z"/>
			<path fill="#88C348" d="M1186.1,126c-3.6,0-6.5,2.5-6.5,5.5v43.9c0,3,2.9,5.5,6.5,5.5c3.6,0,6.5-2.5,6.5-5.5v-43.9
				C1192.7,128.4,1189.7,126,1186.1,126z"/>
			<path fill="#88C348" d="M1203.3,126c-3.6,0-6.5,2.5-6.5,5.5v43.9c0,3,2.9,5.5,6.5,5.5s6.5-2.5,6.5-5.5v-43.9
				C1209.8,128.4,1206.9,126,1203.3,126z"/>
			<path fill="#88C348" d="M1220.5,126c-3.6,0-6.5,2.5-6.5,5.5v43.9c0,3,2.9,5.5,6.5,5.5c3.6,0,6.5-2.5,6.5-5.5v-43.9
				C1227,128.4,1224.1,126,1220.5,126z"/>
			<path fill="#88C348" d="M1237.6,126c-3.6,0-6.5,2.5-6.5,5.5v43.9c0,3,2.9,5.5,6.5,5.5c3.6,0,6.5-2.5,6.5-5.5v-43.9
				C1244.1,128.4,1241.2,126,1237.6,126z"/>
			<path fill="#88C348" d="M1254.8,126c-3.6,0-6.5,2.5-6.5,5.5v43.9c0,3,2.9,5.5,6.5,5.5c3.6,0,6.5-2.5,6.5-5.5v-43.9
				C1261.3,128.4,1258.4,126,1254.8,126z"/>
			<path fill="#88C348" d="M1272,126c-3.6,0-6.5,2.5-6.5,5.5v43.9c0,3,2.9,5.5,6.5,5.5c3.6,0,6.5-2.5,6.5-5.5v-43.9
				C1278.5,128.4,1275.6,126,1272,126z"/>
			<path fill="#88C348" d="M1289.1,126c-3.6,0-6.5,2.5-6.5,5.5v43.9c0,3,2.9,5.5,6.5,5.5c3.6,0,6.5-2.5,6.5-5.5v-43.9
				C1295.6,128.4,1292.7,126,1289.1,126z"/>
			<path fill="#FFFFFF" d="M1306.3,126c-3.6,0-6.5,2.5-6.5,5.5v43.9c0,3,2.9,5.5,6.5,5.5c3.6,0,6.5-2.5,6.5-5.5v-43.9
				C1312.8,128.4,1309.9,126,1306.3,126z"/>
			<path fill="#FFFFFF" d="M1323.5,126c-3.6,0-6.5,2.5-6.5,5.5v43.9c0,3,2.9,5.5,6.5,5.5c3.6,0,6.5-2.5,6.5-5.5v-43.9
				C1330,128.4,1327,126,1323.5,126z"/>
			<path fill="#FFFFFF" d="M1340.6,126c-3.6,0-6.5,2.5-6.5,5.5v43.9c0,3,2.9,5.5,6.5,5.5c3.6,0,6.5-2.5,6.5-5.5v-43.9
				C1347.1,128.4,1344.2,126,1340.6,126z"/>
			<path fill="#FFFFFF" d="M1357.8,126c-3.6,0-6.5,2.5-6.5,5.5v43.9c0,3,2.9,5.5,6.5,5.5c3.6,0,6.5-2.5,6.5-5.5v-43.9
				C1364.3,128.4,1361.4,126,1357.8,126z"/>
		</g>
		<g>
			<path fill="#FDD836" d="M1066,191c-3.6,0-6.5,2.5-6.5,5.5v43.9c0,3,2.9,5.5,6.5,5.5c3.6,0,6.5-2.5,6.5-5.5v-43.9
				C1072.5,193.4,1069.6,191,1066,191z"/>
			<path fill="#FDD836" d="M1083.2,191c-3.6,0-6.5,2.5-6.5,5.5v43.9c0,3,2.9,5.5,6.5,5.5c3.6,0,6.5-2.5,6.5-5.5v-43.9
				C1089.7,193.4,1086.8,191,1083.2,191z"/>
			<path fill="#FDD836" d="M1100.3,191c-3.6,0-6.5,2.5-6.5,5.5v43.9c0,3,2.9,5.5,6.5,5.5c3.6,0,6.5-2.5,6.5-5.5v-43.9
				C1106.8,193.4,1103.9,191,1100.3,191z"/>
			<path fill="#FDD836" d="M1117.5,191c-3.6,0-6.5,2.5-6.5,5.5v43.9c0,3,2.9,5.5,6.5,5.5s6.5-2.5,6.5-5.5v-43.9
				C1124,193.4,1121.1,191,1117.5,191z"/>
			<path fill="#FDD836" d="M1134.7,191c-3.6,0-6.5,2.5-6.5,5.5v43.9c0,3,2.9,5.5,6.5,5.5c3.6,0,6.5-2.5,6.5-5.5v-43.9
				C1141.2,193.4,1138.2,191,1134.7,191z"/>
			<path fill="#FDD836" d="M1151.8,191c-3.6,0-6.5,2.5-6.5,5.5v43.9c0,3,2.9,5.5,6.5,5.5c3.6,0,6.5-2.5,6.5-5.5v-43.9
				C1158.3,193.4,1155.4,191,1151.8,191z"/>
			<path fill="#FDD836" d="M1169,191c-3.6,0-6.5,2.5-6.5,5.5v43.9c0,3,2.9,5.5,6.5,5.5c3.6,0,6.5-2.5,6.5-5.5v-43.9
				C1175.5,193.4,1172.6,191,1169,191z"/>
			<path fill="#FDD836" d="M1186.1,191c-3.6,0-6.5,2.5-6.5,5.5v43.9c0,3,2.9,5.5,6.5,5.5c3.6,0,6.5-2.5,6.5-5.5v-43.9
				C1192.7,193.4,1189.7,191,1186.1,191z"/>
			<path fill="#FDD836" d="M1203.3,191c-3.6,0-6.5,2.5-6.5,5.5v43.9c0,3,2.9,5.5,6.5,5.5s6.5-2.5,6.5-5.5v-43.9
				C1209.8,193.4,1206.9,191,1203.3,191z"/>
			<path fill="#FDD836" d="M1220.5,191c-3.6,0-6.5,2.5-6.5,5.5v43.9c0,3,2.9,5.5,6.5,5.5c3.6,0,6.5-2.5,6.5-5.5v-43.9
				C1227,193.4,1224.1,191,1220.5,191z"/>
			<path fill="#FFFFFF" d="M1237.6,191c-3.6,0-6.5,2.5-6.5,5.5v43.9c0,3,2.9,5.5,6.5,5.5c3.6,0,6.5-2.5,6.5-5.5v-43.9
				C1244.1,193.4,1241.2,191,1237.6,191z"/>
			<path fill="#FFFFFF" d="M1254.8,191c-3.6,0-6.5,2.5-6.5,5.5v43.9c0,3,2.9,5.5,6.5,5.5c3.6,0,6.5-2.5,6.5-5.5v-43.9
				C1261.3,193.4,1258.4,191,1254.8,191z"/>
			<path fill="#FFFFFF" d="M1272,191c-3.6,0-6.5,2.5-6.5,5.5v43.9c0,3,2.9,5.5,6.5,5.5c3.6,0,6.5-2.5,6.5-5.5v-43.9
				C1278.5,193.4,1275.6,191,1272,191z"/>
			<path fill="#FFFFFF" d="M1289.1,191c-3.6,0-6.5,2.5-6.5,5.5v43.9c0,3,2.9,5.5,6.5,5.5c3.6,0,6.5-2.5,6.5-5.5v-43.9
				C1295.6,193.4,1292.7,191,1289.1,191z"/>
			<path fill="#FFFFFF" d="M1306.3,191c-3.6,0-6.5,2.5-6.5,5.5v43.9c0,3,2.9,5.5,6.5,5.5c3.6,0,6.5-2.5,6.5-5.5v-43.9
				C1312.8,193.4,1309.9,191,1306.3,191z"/>
			<path fill="#FFFFFF" d="M1323.5,191c-3.6,0-6.5,2.5-6.5,5.5v43.9c0,3,2.9,5.5,6.5,5.5c3.6,0,6.5-2.5,6.5-5.5v-43.9
				C1330,193.4,1327,191,1323.5,191z"/>
			<path fill="#FFFFFF" d="M1340.6,191c-3.6,0-6.5,2.5-6.5,5.5v43.9c0,3,2.9,5.5,6.5,5.5c3.6,0,6.5-2.5,6.5-5.5v-43.9
				C1347.1,193.4,1344.2,191,1340.6,191z"/>
			<path fill="#FFFFFF" d="M1357.8,191c-3.6,0-6.5,2.5-6.5,5.5v43.9c0,3,2.9,5.5,6.5,5.5c3.6,0,6.5-2.5,6.5-5.5v-43.9
				C1364.3,193.4,1361.4,191,1357.8,191z"/>
		</g>
		<g>
			<path fill="#F78F20" d="M1066,256c-3.6,0-6.5,2.5-6.5,5.5v43.9c0,3,2.9,5.5,6.5,5.5c3.6,0,6.5-2.5,6.5-5.5v-43.9
				C1072.5,258.4,1069.6,256,1066,256z"/>
			<path fill="#F78F20" d="M1083.2,256c-3.6,0-6.5,2.5-6.5,5.5v43.9c0,3,2.9,5.5,6.5,5.5c3.6,0,6.5-2.5,6.5-5.5v-43.9
				C1089.7,258.4,1086.8,256,1083.2,256z"/>
			<path fill="#F78F20" d="M1100.3,256c-3.6,0-6.5,2.5-6.5,5.5v43.9c0,3,2.9,5.5,6.5,5.5c3.6,0,6.5-2.5,6.5-5.5v-43.9
				C1106.8,258.4,1103.9,256,1100.3,256z"/>
			<path fill="#F78F20" d="M1117.5,256c-3.6,0-6.5,2.5-6.5,5.5v43.9c0,3,2.9,5.5,6.5,5.5s6.5-2.5,6.5-5.5v-43.9
				C1124,258.4,1121.1,256,1117.5,256z"/>
			<path fill="#F78F20" d="M1134.7,256c-3.6,0-6.5,2.5-6.5,5.5v43.9c0,3,2.9,5.5,6.5,5.5c3.6,0,6.5-2.5,6.5-5.5v-43.9
				C1141.2,258.4,1138.2,256,1134.7,256z"/>
			<path fill="#F78F20" d="M1151.8,256c-3.6,0-6.5,2.5-6.5,5.5v43.9c0,3,2.9,5.5,6.5,5.5c3.6,0,6.5-2.5,6.5-5.5v-43.9
				C1158.3,258.4,1155.4,256,1151.8,256z"/>
			<path fill="#FFFFFF" d="M1169,256c-3.6,0-6.5,2.5-6.5,5.5v43.9c0,3,2.9,5.5,6.5,5.5c3.6,0,6.5-2.5,6.5-5.5v-43.9
				C1175.5,258.4,1172.6,256,1169,256z"/>
			<path fill="#FFFFFF" d="M1186.1,256c-3.6,0-6.5,2.5-6.5,5.5v43.9c0,3,2.9,5.5,6.5,5.5c3.6,0,6.5-2.5,6.5-5.5v-43.9
				C1192.7,258.4,1189.7,256,1186.1,256z"/>
			<path fill="#FFFFFF" d="M1203.3,256c-3.6,0-6.5,2.5-6.5,5.5v43.9c0,3,2.9,5.5,6.5,5.5s6.5-2.5,6.5-5.5v-43.9
				C1209.8,258.4,1206.9,256,1203.3,256z"/>
			<path fill="#FFFFFF" d="M1220.5,256c-3.6,0-6.5,2.5-6.5,5.5v43.9c0,3,2.9,5.5,6.5,5.5c3.6,0,6.5-2.5,6.5-5.5v-43.9
				C1227,258.4,1224.1,256,1220.5,256z"/>
			<path fill="#FFFFFF" d="M1237.6,256c-3.6,0-6.5,2.5-6.5,5.5v43.9c0,3,2.9,5.5,6.5,5.5c3.6,0,6.5-2.5,6.5-5.5v-43.9
				C1244.1,258.4,1241.2,256,1237.6,256z"/>
			<path fill="#FFFFFF" d="M1254.8,256c-3.6,0-6.5,2.5-6.5,5.5v43.9c0,3,2.9,5.5,6.5,5.5c3.6,0,6.5-2.5,6.5-5.5v-43.9
				C1261.3,258.4,1258.4,256,1254.8,256z"/>
			<path fill="#FFFFFF" d="M1272,256c-3.6,0-6.5,2.5-6.5,5.5v43.9c0,3,2.9,5.5,6.5,5.5c3.6,0,6.5-2.5,6.5-5.5v-43.9
				C1278.5,258.4,1275.6,256,1272,256z"/>
			<path fill="#FFFFFF" d="M1289.1,256c-3.6,0-6.5,2.5-6.5,5.5v43.9c0,3,2.9,5.5,6.5,5.5c3.6,0,6.5-2.5,6.5-5.5v-43.9
				C1295.6,258.4,1292.7,256,1289.1,256z"/>
			<path fill="#FFFFFF" d="M1306.3,256c-3.6,0-6.5,2.5-6.5,5.5v43.9c0,3,2.9,5.5,6.5,5.5c3.6,0,6.5-2.5,6.5-5.5v-43.9
				C1312.8,258.4,1309.9,256,1306.3,256z"/>
			<path fill="#FFFFFF" d="M1323.5,256c-3.6,0-6.5,2.5-6.5,5.5v43.9c0,3,2.9,5.5,6.5,5.5c3.6,0,6.5-2.5,6.5-5.5v-43.9
				C1330,258.4,1327,256,1323.5,256z"/>
			<path fill="#FFFFFF" d="M1340.6,256c-3.6,0-6.5,2.5-6.5,5.5v43.9c0,3,2.9,5.5,6.5,5.5c3.6,0,6.5-2.5,6.5-5.5v-43.9
				C1347.1,258.4,1344.2,256,1340.6,256z"/>
			<path fill="#FFFFFF" d="M1357.8,256c-3.6,0-6.5,2.5-6.5,5.5v43.9c0,3,2.9,5.5,6.5,5.5c3.6,0,6.5-2.5,6.5-5.5v-43.9
				C1364.3,258.4,1361.4,256,1357.8,256z"/>
		</g>
		<g>
			<path fill="#E94D40" d="M1066,321c-3.6,0-6.5,2.5-6.5,5.5v43.9c0,3,2.9,5.5,6.5,5.5c3.6,0,6.5-2.5,6.5-5.5v-43.9
				C1072.5,323.4,1069.6,321,1066,321z"/>
			<path fill="#E94D40" d="M1083.2,321c-3.6,0-6.5,2.5-6.5,5.5v43.9c0,3,2.9,5.5,6.5,5.5c3.6,0,6.5-2.5,6.5-5.5v-43.9
				C1089.7,323.4,1086.8,321,1083.2,321z"/>
			<path fill="#E94D40" d="M1100.3,321c-3.6,0-6.5,2.5-6.5,5.5v43.9c0,3,2.9,5.5,6.5,5.5c3.6,0,6.5-2.5,6.5-5.5v-43.9
				C1106.8,323.4,1103.9,321,1100.3,321z"/>
			<path fill="#FFFFFF" d="M1117.5,321c-3.6,0-6.5,2.5-6.5,5.5v43.9c0,3,2.9,5.5,6.5,5.5s6.5-2.5,6.5-5.5v-43.9
				C1124,323.4,1121.1,321,1117.5,321z"/>
			<path fill="#FFFFFF" d="M1134.7,321c-3.6,0-6.5,2.5-6.5,5.5v43.9c0,3,2.9,5.5,6.5,5.5c3.6,0,6.5-2.5,6.5-5.5v-43.9
				C1141.2,323.4,1138.2,321,1134.7,321z"/>
			<path fill="#FFFFFF" d="M1151.8,321c-3.6,0-6.5,2.5-6.5,5.5v43.9c0,3,2.9,5.5,6.5,5.5c3.6,0,6.5-2.5,6.5-5.5v-43.9
				C1158.3,323.4,1155.4,321,1151.8,321z"/>
			<path fill="#FFFFFF" d="M1169,321c-3.6,0-6.5,2.5-6.5,5.5v43.9c0,3,2.9,5.5,6.5,5.5c3.6,0,6.5-2.5,6.5-5.5v-43.9
				C1175.5,323.4,1172.6,321,1169,321z"/>
			<path fill="#FFFFFF" d="M1186.1,321c-3.6,0-6.5,2.5-6.5,5.5v43.9c0,3,2.9,5.5,6.5,5.5c3.6,0,6.5-2.5,6.5-5.5v-43.9
				C1192.7,323.4,1189.7,321,1186.1,321z"/>
			<path fill="#FFFFFF" d="M1203.3,321c-3.6,0-6.5,2.5-6.5,5.5v43.9c0,3,2.9,5.5,6.5,5.5s6.5-2.5,6.5-5.5v-43.9
				C1209.8,323.4,1206.9,321,1203.3,321z"/>
			<path fill="#FFFFFF" d="M1220.5,321c-3.6,0-6.5,2.5-6.5,5.5v43.9c0,3,2.9,5.5,6.5,5.5c3.6,0,6.5-2.5,6.5-5.5v-43.9
				C1227,323.4,1224.1,321,1220.5,321z"/>
			<path fill="#FFFFFF" d="M1237.6,321c-3.6,0-6.5,2.5-6.5,5.5v43.9c0,3,2.9,5.5,6.5,5.5c3.6,0,6.5-2.5,6.5-5.5v-43.9
				C1244.1,323.4,1241.2,321,1237.6,321z"/>
			<path fill="#FFFFFF" d="M1254.8,321c-3.6,0-6.5,2.5-6.5,5.5v43.9c0,3,2.9,5.5,6.5,5.5c3.6,0,6.5-2.5,6.5-5.5v-43.9
				C1261.3,323.4,1258.4,321,1254.8,321z"/>
			<path fill="#FFFFFF" d="M1272,321c-3.6,0-6.5,2.5-6.5,5.5v43.9c0,3,2.9,5.5,6.5,5.5c3.6,0,6.5-2.5,6.5-5.5v-43.9
				C1278.5,323.4,1275.6,321,1272,321z"/>
			<path fill="#FFFFFF" d="M1289.1,321c-3.6,0-6.5,2.5-6.5,5.5v43.9c0,3,2.9,5.5,6.5,5.5c3.6,0,6.5-2.5,6.5-5.5v-43.9
				C1295.6,323.4,1292.7,321,1289.1,321z"/>
			<path fill="#FFFFFF" d="M1306.3,321c-3.6,0-6.5,2.5-6.5,5.5v43.9c0,3,2.9,5.5,6.5,5.5c3.6,0,6.5-2.5,6.5-5.5v-43.9
				C1312.8,323.4,1309.9,321,1306.3,321z"/>
			<path fill="#FFFFFF" d="M1323.5,321c-3.6,0-6.5,2.5-6.5,5.5v43.9c0,3,2.9,5.5,6.5,5.5c3.6,0,6.5-2.5,6.5-5.5v-43.9
				C1330,323.4,1327,321,1323.5,321z"/>
			<path fill="#FFFFFF" d="M1340.6,321c-3.6,0-6.5,2.5-6.5,5.5v43.9c0,3,2.9,5.5,6.5,5.5c3.6,0,6.5-2.5,6.5-5.5v-43.9
				C1347.1,323.4,1344.2,321,1340.6,321z"/>
			<path fill="#FFFFFF" d="M1357.8,321c-3.6,0-6.5,2.5-6.5,5.5v43.9c0,3,2.9,5.5,6.5,5.5c3.6,0,6.5-2.5,6.5-5.5v-43.9
				C1364.3,323.4,1361.4,321,1357.8,321z"/>
		</g>
		<g>
			<polygon fill="#FAA62C" points="65.2,685.3 360,685.3 330.5,634.2 94.7,634.2 			"/>
			<polygon fill="#FDD836" points="94.7,634.2 330.5,634.2 301,583.2 124.1,583.2 			"/>
			<polygon fill="#E94D40" points="35.7,736.4 389.5,736.4 360,685.3 65.2,685.3 			"/>
			<polygon fill="#3BB2E6" points="212.6,430 183.1,481.1 242.1,481.1 			"/>
			<polygon fill="#9CC967" points="153.6,532.1 124.1,583.2 301,583.2 271.5,532.1 			"/>
			<polygon fill="#64C3A6" points="242.1,481.1 183.1,481.1 153.6,532.1 271.5,532.1 			"/>
		</g>
		<g>
			<polygon fill="#3BB2E6" points="40.2,937.2 99.2,756.2 158.2,937.2 			"/>
			<polygon fill="#64C3A6" points="87,937.2 145.9,781.6 204.9,937.2 			"/>
			<polygon fill="#9CC967" points="133.7,937.2 192.6,805.6 251.6,937.2 			"/>
			<polygon fill="#FDD836" points="180.4,937.2 239.4,833.6 298.3,937.2 			"/>
			<polygon fill="#FAA62C" points="227.1,937.2 286.1,854.6 345,937.2 			"/>
			<polygon fill="#E94D40" points="273.8,937.2 332.8,874.6 391.7,937.2 			"/>
		</g>
		<g>
			<path fill="#64C3A6" d="M1233.7,691.3h136.5c0-65.2-26.4-124.2-69.1-166.9l-96.5,96.5C1222.5,639,1233.7,663.9,1233.7,691.3z"/>
			<path fill="#3BB2E6" d="M1204.5,621l96.5-96.5c-42.7-42.7-101.7-69.1-166.9-69.1v136.5C1161.6,591.8,1186.5,602.9,1204.5,621z"/>
			<path fill="#1A85C6" d="M1134.1,591.8V455.3c-65.2,0-124.2,26.4-166.9,69.1l96.5,96.5C1081.8,602.9,1106.7,591.8,1134.1,591.8z"
				/>
			<path fill="#9CC967" d="M1370.1,691.3h-136.5c0,27.4-11.2,52.3-29.2,70.3l96.5,96.5C1343.7,815.5,1370.1,756.5,1370.1,691.3z"/>
			<path fill="#FDD836" d="M1063.8,761.7l-96.5,96.5c42.7,42.7,101.7,69.1,166.9,69.1V790.8C1106.7,790.8,1081.8,779.7,1063.8,761.7
				z"/>
			<path fill="#FAEB3D" d="M1134.1,790.8v136.5c65.2,0,124.2-26.4,166.9-69.1l-96.5-96.5C1186.5,779.7,1161.6,790.8,1134.1,790.8z"
				/>
			<path fill="#E94D40" d="M1063.8,621l-96.5-96.5c-42.7,42.7-69.1,101.7-69.1,166.9h136.5C1034.6,663.9,1045.8,639,1063.8,621z"/>
			<path fill="#FAA62C" d="M1034.6,691.3H898.1c0,65.2,26.4,124.2,69.1,166.9l96.5-96.5C1045.8,743.6,1034.6,718.7,1034.6,691.3z"/>
		</g>
		<g>
			<g>
				<circle fill="#E94D40" cx="435.7" cy="481.1" r="19.3"/>
				<circle fill="#E94D40" cx="487.3" cy="481.1" r="19.3"/>
				<circle fill="#FFFFFF" cx="539" cy="481.1" r="19.3"/>
				<circle fill="#FFFFFF" cx="590.7" cy="481.1" r="19.3"/>
				<circle fill="#FFFFFF" cx="642.3" cy="481.1" r="19.3"/>
				<circle fill="#FFFFFF" cx="694" cy="481.1" r="19.3"/>
				<circle fill="#FFFFFF" cx="745.6" cy="481.1" r="19.3"/>
				<circle fill="#FFFFFF" cx="797.3" cy="481.1" r="19.3"/>
				<circle fill="#FFFFFF" cx="848.9" cy="481.1" r="19.3"/>
			</g>
			<g>
				<circle fill="#FAA62C" cx="435.7" cy="532.1" r="19.3"/>
				<circle fill="#FAA62C" cx="487.3" cy="532.1" r="19.3"/>
				<circle fill="#FAA62C" cx="539" cy="532.1" r="19.3"/>
				<circle fill="#FAA62C" cx="590.7" cy="532.1" r="19.3"/>
				<circle fill="#FFFFFF" cx="642.3" cy="532.1" r="19.3"/>
				<circle fill="#FFFFFF" cx="694" cy="532.1" r="19.3"/>
				<circle fill="#FFFFFF" cx="745.6" cy="532.1" r="19.3"/>
				<circle fill="#FFFFFF" cx="797.3" cy="532.1" r="19.3"/>
				<circle fill="#FFFFFF" cx="848.9" cy="532.1" r="19.3"/>
			</g>
			<g>
				<circle fill="#FDD836" cx="435.7" cy="583.2" r="19.3"/>
				<circle fill="#FDD836" cx="487.3" cy="583.2" r="19.3"/>
				<circle fill="#FDD836" cx="539" cy="583.2" r="19.3"/>
				<circle fill="#FDD836" cx="590.7" cy="583.2" r="19.3"/>
				<circle fill="#FDD836" cx="642.3" cy="583.2" r="19.3"/>
				<circle fill="#FDD836" cx="694" cy="583.2" r="19.3"/>
				<circle fill="#FFFFFF" cx="745.6" cy="583.2" r="19.3"/>
				<circle fill="#FFFFFF" cx="797.3" cy="583.2" r="19.3"/>
				<circle fill="#FFFFFF" cx="848.9" cy="583.2" r="19.3"/>
			</g>
			<g>
				<circle fill="#88C348" cx="435.7" cy="634.2" r="19.3"/>
				<circle fill="#88C348" cx="487.3" cy="634.2" r="19.3"/>
				<circle fill="#88C348" cx="539" cy="634.2" r="19.3"/>
				<circle fill="#88C348" cx="590.7" cy="634.2" r="19.3"/>
				<circle fill="#88C348" cx="642.3" cy="634.2" r="19.3"/>
				<circle fill="#88C348" cx="694" cy="634.2" r="19.3"/>
				<circle fill="#88C348" cx="745.6" cy="634.2" r="19.3"/>
				<circle fill="#FFFFFF" cx="797.3" cy="634.2" r="19.3"/>
				<circle fill="#FFFFFF" cx="848.9" cy="634.2" r="19.3"/>
			</g>
			<g>
				<circle fill="#3BB2E6" cx="435.7" cy="685.3" r="19.3"/>
				<circle fill="#3BB2E6" cx="487.3" cy="685.3" r="19.3"/>
				<circle fill="#3BB2E6" cx="539" cy="685.3" r="19.3"/>
				<circle fill="#3BB2E6" cx="590.7" cy="685.3" r="19.3"/>
				<circle fill="#3BB2E6" cx="642.3" cy="685.3" r="19.3"/>
				<circle fill="#3BB2E6" cx="694" cy="685.3" r="19.3"/>
				<circle fill="#3BB2E6" cx="745.6" cy="685.3" r="19.3"/>
				<circle fill="#3BB2E6" cx="797.3" cy="685.3" r="19.3"/>
				<circle fill="#3BB2E6" cx="848.9" cy="685.3" r="19.3"/>
			</g>
		</g>
		<g>
			<polygon fill="#3BB2E6" points="499.6,775.3 432.7,775.3 481.8,841.9 432.7,908.4 499.6,908.4 548.7,841.9 			"/>
			<polygon fill="#64C3A6" points="567.7,775.3 500.8,775.3 549.9,841.9 500.8,908.4 567.7,908.4 616.8,841.9 			"/>
			<polygon fill="#9CC967" points="635.7,775.3 568.8,775.3 617.9,841.9 568.8,908.4 635.7,908.4 684.8,841.9 			"/>
			<polygon fill="#FDD836" points="703.8,775.3 636.9,775.3 685.9,841.9 636.9,908.4 703.8,908.4 752.9,841.9 			"/>
			<polygon fill="#FAA62C" points="771.8,775.3 704.9,775.3 754,841.9 704.9,908.4 771.8,908.4 820.9,841.9 			"/>
			<polygon fill="#E94D40" points="839.9,775.3 772.9,775.3 822,841.9 772.9,908.4 839.9,908.4 889,841.9 			"/>
		</g>
	</g>
</g>
</svg>
