<svg xmlns="http://www.w3.org/2000/svg" viewBox="0 0 504.87 139.75"><defs><style>.cls-1{fill:none;stroke:#8b3af3;}.cls-1,.cls-2{stroke-width:2px;}.cls-2{fill:#8b3af3;stroke:#d8d8f6;stroke-miterlimit:10;}</style></defs><g id="Layer_2" data-name="Layer 2"><g id="Layer_1-2" data-name="Layer 1"><path class="cls-1" d="M181.31,109.93H140l-8.12,28.72h-28L149,1.11h24.08l44.22,137.54h-28ZM146.55,87.36h28.53L161,36.72Z"/><path class="cls-2" d="M32.84,67.66,26.41,70l6.43,2.27L84.61,89.58v25.6L1,80.51V59.25L84.61,24.58V50.09Z"/><path class="cls-2" d="M420.26,50.09V24.58l83.61,34.67V80.51l-83.61,34.67V89.58L472,72.29,478.46,70,472,67.66Z"/><path class="cls-2" d="M240.3,138.55,240.87,1l46.19.19a86,86,0,0,1,20.45,2.35,45.87,45.87,0,0,1,15.69,7,31.5,31.5,0,0,1,10,11.76A36.94,36.94,0,0,1,336.69,39a31.25,31.25,0,0,1-5.22,17.27q-5.09,7.64-14.92,11.56a31.45,31.45,0,0,1,10.27,4.58,28.66,28.66,0,0,1,7.2,7.16,29.39,29.39,0,0,1,4.22,9,37.11,37.11,0,0,1,1.33,10.07,42.22,42.22,0,0,1-3.48,17.46,33.85,33.85,0,0,1-9.78,12.62,42.7,42.7,0,0,1-15.43,7.59,75.58,75.58,0,0,1-20.41,2.46ZM267.19,78l-.16,39.2,23.62.1q10.86,0,16.6-5.27T313,98.32q.14-9.45-5-14.76t-16-5.45Zm.08-19.18,19.75.08q11,0,17-4.56t6.1-13.29q0-9.63-5.9-13.87t-17.17-4.36l-19.65-.09Z"/><path class="cls-1" d="M370.79,135.66H349.24L394.59,4.1h21.55Z"/></g></g></svg>